<svg width="16" height="16" viewBox="0 0 16 16" fill="none" xmlns="http://www.w3.org/2000/svg">
<g clip-path="url(#clip0)">
<path d="M2.86612 14.85C2.78812 15.294 3.22612 15.641 3.61212 15.443L8.00212 13.187L12.3911 15.443C12.7771 15.641 13.2151 15.294 13.1371 14.851L12.3071 10.121L15.8291 6.76505C16.1591 6.45105 15.9891 5.87705 15.5471 5.81505L10.6491 5.11905L8.46512 0.792045C8.42351 0.704334 8.35787 0.630228 8.27583 0.578338C8.19378 0.526447 8.0987 0.498901 8.00162 0.498901C7.90454 0.498901 7.80945 0.526447 7.72741 0.578338C7.64536 0.630228 7.57972 0.704334 7.53812 0.792045L5.35412 5.12005L0.456118 5.81605C0.0151183 5.87805 -0.155882 6.45205 0.173118 6.76605L3.69612 10.122L2.86612 14.852V14.85ZM7.77112 12.083L4.08512 13.977L4.77912 10.02C4.79538 9.92896 4.78902 9.83527 4.76059 9.74722C4.73217 9.65916 4.68256 9.57944 4.61612 9.51505L1.71012 6.74505L5.76212 6.16905C5.84602 6.15637 5.92561 6.12355 5.99405 6.0734C6.0625 6.02324 6.11776 5.95724 6.15512 5.88105L8.00012 2.22305L9.84712 5.88105C9.88447 5.95724 9.93974 6.02324 10.0082 6.0734C10.0766 6.12355 10.1562 6.15637 10.2401 6.16905L14.2921 6.74405L11.3861 9.51404C11.3195 9.57854 11.2698 9.65843 11.2414 9.74668C11.213 9.83492 11.2067 9.9288 11.2231 10.02L11.9171 13.977L8.23112 12.083C8.15984 12.0463 8.08081 12.0271 8.00062 12.0271C7.92043 12.0271 7.8414 12.0463 7.77012 12.083H7.77112Z" fill="black"/>
<path d="M7.7712 12.083L4.08521 13.977L4.7792 10.02C4.79546 9.92894 4.7891 9.83525 4.76068 9.7472C4.73226 9.65914 4.68265 9.57942 4.61621 9.51502L1.71021 6.74502L5.76221 6.16902C5.84611 6.15635 5.92569 6.12353 5.99414 6.07337C6.06258 6.02322 6.11785 5.95721 6.15521 5.88102L8.00021 2.22302L9.84721 5.88102C9.88456 5.95721 9.93983 6.02322 10.0083 6.07337C10.0767 6.12353 10.1563 6.15635 10.2402 6.16902L14.2922 6.74402L11.3862 9.51402C11.3196 9.57852 11.2699 9.65841 11.2415 9.74665C11.213 9.8349 11.2068 9.92878 11.2232 10.02L11.9172 13.977L8.2312 12.083C8.15993 12.0463 8.0809 12.0271 8.0007 12.0271C7.92051 12.0271 7.84248 12.0463 7.7712 12.083Z" fill="#C9CC30"/>
</g>
<defs>
<clipPath id="clip0">
<rect width="16" height="16" fill="white"/>
</clipPath>
</defs>
</svg>
